<svg id="telegram" viewBox="0 0 24 21"  xmlns="http://www.w3.org/2000/svg">
<path d="M23.0313 0.696893C22.1356 0.0840566 21.2767 0.53463 21.2767 0.53463C21.2767 0.53463 3.67447 7.79387 2.21167 8.40599C0.749593 9.01883 0.877858 10.2253 0.877858 10.2253C0.896233 11.2703 2.19366 11.6669 2.19366 11.6669L6.52584 13.0896C6.52584 13.0896 8.02431 17.7374 8.1342 18.1517C8.24409 18.5661 8.60799 19.4903 9.24931 19.6107C10.0171 19.7541 10.4192 19.4122 10.4192 19.4122L12.978 17.0706L16.5428 19.8081C17.018 20.1866 17.8773 20.673 18.9005 20.4387C19.9245 20.2043 20.3078 19.196 20.3078 19.196L23.5433 2.714C23.5433 2.714 23.927 1.30902 23.0313 0.696893ZM18.6991 18.4574C18.6991 18.4574 18.6991 18.7457 18.4977 18.8359C18.2963 18.9258 18.0229 18.7635 18.0229 18.7635L12.9229 14.9089L9.76093 17.683L10.4559 13.5036C10.4559 13.5036 19.0104 5.57793 19.0655 5.52396C19.12 5.46999 19.2479 5.32619 19.12 5.19943C18.9921 5.07338 18.7723 5.19943 18.7723 5.19943L7.93279 11.7208L2.7604 10.0453L21.8978 2.11927L18.6991 18.4574Z" />
</svg>
