<svg id='123' viewBox="0 0 27 15"  xmlns="http://www.w3.org/2000/svg">
<path d="M4.62881 1.45904H0.70385C0.70385 1.45904 -0.281717 1.4895 0.0796355 2.37944C0.440988 3.26908 2.54688 7.90218 4.98584 10.6522C7.4248 13.4022 10.8487 14.8517 12.4498 14.8517C14.0509 14.8517 14.5929 14.8517 14.5929 14.8517C14.5929 14.8517 15.2335 14.8517 15.3073 14.0463C15.3809 13.2412 15.6274 11.6416 16.3541 11.6416C17.0808 11.6416 17.3151 11.9636 17.6841 12.4122C18.0534 12.8614 19.2363 13.9888 19.7041 14.3226C20.1723 14.6565 20.7266 14.875 21.6623 14.875C22.5986 14.875 25.4561 14.875 25.4561 14.875C25.4561 14.875 26.1579 14.7255 26.2314 14.1041C26.3053 13.4827 23.0172 10.1462 22.2901 9.58228C22.2901 9.58228 21.9458 9.28326 21.9208 8.8689C21.8962 8.45455 22.0562 8.23572 22.3277 7.91368C22.5986 7.59165 25.2342 4.62311 26.1705 2.55196C26.1705 2.55196 26.5891 1.47023 25.505 1.47023C24.4213 1.47023 20.8254 1.47023 20.8254 1.47023C20.8254 1.47023 20.3077 1.38972 20.0738 1.96478C19.8399 2.54046 18.0784 6.25689 16.6007 7.40732C16.6007 7.40732 16.219 7.72935 15.849 7.66066C15.48 7.59134 15.332 7.02778 15.332 6.71694C15.332 6.40641 15.332 2.24143 15.332 2.24143C15.332 2.24143 15.332 1.1482 13.9651 0.97568C12.5979 0.803162 10.6886 0.872169 9.93729 1.0335C9.18597 1.19451 8.87819 1.56255 8.69319 1.85039C8.69319 1.85039 10.0118 2.17242 10.1715 3.11583C10.3313 4.05955 10.4051 6.13069 10.1469 7.0971C10.1469 7.0971 9.9496 7.70697 9.44484 7.69547C8.94008 7.68397 8.25032 6.82107 7.89329 6.32652C7.53593 5.83197 5.66396 2.47208 5.50324 2.10342C5.34286 1.73507 5.02311 1.45904 4.62881 1.45904Z"/>
</svg>
