<svg xmlns="http://www.w3.org/2000/svg" viewBox="0 0 512 512"><path fill="#f44336" d="M490.24 113.92c-13.89-24.7-28.96-29.25-59.65-30.98C399.94 80.86 322.85 80 256.06 80c-66.9 0-144.03.86-174.65 2.91-30.63 1.76-45.73 6.27-59.75 31.01C7.36 138.59 0 181.09 0 255.9v.26c0 74.5 7.36 117.31 21.66 141.73 14.02 24.7 29.1 29.18 59.72 31.26 30.65 1.8 107.77 2.85 174.68 2.85 66.79 0 143.88-1.06 174.56-2.82 30.7-2.08 45.76-6.56 59.65-31.26C504.7 373.5 512 330.69 512 256.19v-.26c0-74.84-7.3-117.34-21.76-142.01z"/><path fill="#fafafa" d="M192 352V160l160 96z"/></svg>