<svg viewBox="0 0 25 25"  xmlns="http://www.w3.org/2000/svg">
<path d="M18.5662 4.62924C17.755 4.62924 17.0975 5.28512 17.0975 6.09462C17.0975 6.90337 17.755 7.56 18.5662 7.56C19.3777 7.56 20.0356 6.90375 20.0356 6.09462C20.0356 5.28512 19.3777 4.62924 18.5662 4.62924ZM12.4368 6.532C9.16701 6.53237 6.51742 9.17564 6.51705 12.4375C6.51742 15.699 9.16738 18.3419 12.4368 18.3423C15.7069 18.3419 18.3565 15.699 18.3572 12.4375C18.3565 9.17564 15.7069 6.53274 12.4368 6.532ZM15.2987 15.2914C14.5634 16.0241 13.5574 16.4734 12.4368 16.4742C11.3164 16.4734 10.3105 16.0241 9.57521 15.2914C8.84142 14.558 8.39022 13.555 8.38985 12.4375C8.39022 11.3193 8.84142 10.3162 9.57521 9.58281C10.3105 8.85087 11.3164 8.40082 12.4368 8.40044C13.5574 8.40082 14.5634 8.85087 15.2987 9.58281C16.0325 10.3162 16.4837 11.3196 16.4844 12.4375C16.4837 13.555 16.0325 14.5584 15.2987 15.2914ZM24.1352 7.17781C24.1352 7.17818 24.1352 7.1793 24.1352 7.18004C24.1352 7.18079 24.1352 7.18191 24.1352 7.18265V7.17781ZM22.2639 7.2576L22.2632 7.24604C22.2632 7.24529 22.2632 7.24455 22.2632 7.24418L22.2639 7.2576ZM24.1352 7.18004C24.0822 5.39474 23.4071 3.79402 22.2583 2.64222C21.1148 1.48931 19.5093 0.799876 17.6963 0.754013C17.5244 0.746555 14.8378 0.625373 12.6315 0.625C10.3901 0.625373 7.31813 0.750284 7.22019 0.754013C5.40159 0.79913 3.80914 1.49229 2.6791 2.64595C1.54608 3.79737 0.881436 5.38319 0.784244 7.1491L0.78387 7.15804C0.768918 7.36349 0.625 9.40085 0.625 12.2436C0.625 15.0401 0.764058 17.3307 0.782375 17.6204C0.786861 19.3721 1.47243 20.9505 2.62228 22.0885C3.77699 23.2362 5.38701 23.9424 7.2 24.0464C7.40934 24.0617 10.0238 24.2493 12.5422 24.25C15.1619 24.2493 17.7221 24.046 17.7359 24.0453C19.4921 23.9066 21.0853 23.2052 22.2501 22.0728C23.4127 20.9475 24.1349 19.3755 24.1364 17.6062C24.1442 17.353 24.2496 14.2243 24.25 12.3335C24.2489 10.3871 24.1379 7.26394 24.1352 7.18004ZM22.3196 15.6643C22.2916 16.7318 22.2632 17.5562 22.2632 17.5577L22.2624 17.5738V17.5898C22.2591 18.8654 21.7683 19.9262 20.9425 20.7353C20.1153 21.54 18.9392 22.0758 17.5872 22.1828C17.5872 22.1828 17.5509 22.1858 17.478 22.191C16.9685 22.229 14.7518 22.3816 12.5418 22.3812C11.2794 22.3812 9.97071 22.332 8.98122 22.2816C8.48629 22.2566 8.07099 22.2317 7.78053 22.213C7.48933 22.1944 7.32635 22.1821 7.3256 22.1821L7.31588 22.1813L7.31065 22.1809C5.91296 22.0985 4.75489 21.5683 3.94409 20.7637C3.13478 19.9557 2.65817 18.877 2.65481 17.5894V17.3691L2.64172 17.3426C2.60584 16.7292 2.4978 14.6743 2.4978 12.2425C2.4978 10.7816 2.53668 9.53732 2.57556 8.65996C2.58378 8.47054 2.59238 8.29828 2.60023 8.14466H2.60546L2.65331 7.26133C2.73032 5.88656 3.22861 4.7549 4.01586 3.9536C4.80648 3.15417 5.89203 2.659 7.27962 2.6206H7.28747L7.2942 2.62022C7.29495 2.62022 7.48746 2.61239 7.81455 2.60046C8.79469 2.56429 10.9733 2.49233 12.6311 2.4927C13.7358 2.4927 14.9862 2.5244 15.957 2.55609C16.4425 2.57212 16.8586 2.58778 17.1528 2.60009C17.447 2.61239 17.6174 2.61985 17.6178 2.61985L17.6268 2.62022L17.6372 2.6206C19.017 2.65826 20.1287 3.15716 20.9283 3.95733C21.7249 4.76012 22.2191 5.87985 22.2624 7.23858V7.24567C22.2636 7.26729 22.2703 7.45969 22.2804 7.76806C22.3122 8.7487 22.3757 10.9013 22.3757 12.332C22.3764 13.2858 22.3484 14.5968 22.3196 15.6643Z" />
</svg>
